<svg xmlns="http://www.w3.org/2000/svg" width="24" height="24" viewBox="0 0 24 24">
  <g fill="none" fill-rule="evenodd">
    <path fill="#000" fill-opacity=".54" d="M15.757,9.7455 L14.963,9.7455 L14.687,10.0195 C15.662,11.1565 16.255,12.6305 16.255,14.2455 C16.255,17.8355 13.345,20.7455 9.755,20.7455 C6.165,20.7455 3.255,17.8355 3.255,14.2455 C3.255,10.6555 6.165,7.7455 9.755,7.7455 C11.37,7.7455 12.843,8.3375 13.98,9.3115 L14.256,9.0375 L14.256,8.2455 L19.254,3.2545 L20.745,4.7455 L15.757,9.7455 L15.757,9.7455 Z M9.755,9.7455 C7.269,9.7455 5.255,11.7595 5.255,14.2455 C5.255,16.7305 7.269,18.7455 9.755,18.7455 C12.24,18.7455 14.255,16.7305 14.255,14.2455 C14.255,11.7595 12.24,9.7455 9.755,9.7455 L9.755,9.7455 Z" transform="matrix(1 0 0 -1 0 24)"/>
    <rect width="24" height="24"/>
  </g>
</svg>
